<mxfile host="Electron" modified="2024-05-19T03:11:54.858Z" agent="Mozilla/5.0 (Windows NT 10.0; Win64; x64) AppleWebKit/537.36 (KHTML, like Gecko) draw.io/24.1.0 Chrome/120.0.6099.109 Electron/28.1.0 Safari/537.36" etag="fNTF5nI8R0xRovkoecLy" version="24.1.0" type="device">
  <diagram name="Sayfa -1" id="49C510wMh0SNe3ywF7aB">
    <mxGraphModel dx="2944" dy="621" grid="1" gridSize="10" guides="1" tooltips="1" connect="1" arrows="1" fold="1" page="1" pageScale="1" pageWidth="827" pageHeight="1169" math="0" shadow="0">
      <root>
        <mxCell id="0" />
        <mxCell id="1" parent="0" />
        <mxCell id="r34V6b8p5sTnCpe_UtRE-1" value="&lt;h1&gt;&lt;span style=&quot;text-wrap: nowrap;&quot;&gt;&lt;font face=&quot;Helvetica&quot; style=&quot;font-size: 24px;&quot;&gt;Ürünler&amp;nbsp;&lt;br&gt;&lt;/font&gt;&lt;/span&gt;&lt;span style=&quot;text-wrap: nowrap;&quot;&gt;&lt;font face=&quot;Helvetica&quot; style=&quot;font-size: 24px;&quot;&gt;Veritabanı&lt;/font&gt;&lt;/span&gt;&lt;/h1&gt;" style="rounded=0;whiteSpace=wrap;html=1;fillColor=#FFFFCC;strokeColor=#B85450;" parent="1" vertex="1">
          <mxGeometry x="-1520" y="440" width="200" height="120" as="geometry" />
        </mxCell>
        <mxCell id="r34V6b8p5sTnCpe_UtRE-2" value="&lt;h1&gt;&lt;span style=&quot;font-size: 24px; text-wrap: nowrap;&quot;&gt;Şef ve Yazarlar&lt;br&gt;&lt;/span&gt;&lt;span style=&quot;font-size: 24px; text-wrap: nowrap;&quot;&gt;Veritabanı&lt;/span&gt;&lt;/h1&gt;" style="rounded=0;whiteSpace=wrap;html=1;fillColor=#FFFFCC;strokeColor=#B85450;" parent="1" vertex="1">
          <mxGeometry x="-920" y="120" width="200" height="120" as="geometry" />
        </mxCell>
        <mxCell id="r34V6b8p5sTnCpe_UtRE-3" value="&lt;h1&gt;&lt;span style=&quot;text-wrap: nowrap;&quot;&gt;&lt;font face=&quot;Helvetica&quot; style=&quot;font-size: 24px;&quot;&gt;&lt;b&gt;Kullanıcı&lt;br&gt;&lt;/b&gt;&lt;/font&gt;&lt;/span&gt;&lt;span style=&quot;font-size: 24px; text-wrap: nowrap;&quot;&gt;&lt;b&gt;Veritabanı&lt;/b&gt;&lt;/span&gt;&lt;/h1&gt;" style="rounded=0;whiteSpace=wrap;html=1;fillColor=#FFFFCC;strokeColor=#b85450;" parent="1" vertex="1">
          <mxGeometry x="-920" y="440" width="200" height="120" as="geometry" />
        </mxCell>
        <mxCell id="r34V6b8p5sTnCpe_UtRE-4" value="&lt;h1&gt;&lt;font face=&quot;Verdana&quot;&gt;&lt;span style=&quot;font-size: 24px; text-wrap: nowrap;&quot;&gt;Yemek Tarifi&lt;br&gt;&lt;/span&gt;&lt;/font&gt;&lt;font face=&quot;Verdana&quot;&gt;&lt;span style=&quot;font-size: 24px; text-wrap: nowrap;&quot;&gt;Veritabanı&lt;/span&gt;&lt;/font&gt;&lt;/h1&gt;" style="rounded=0;whiteSpace=wrap;html=1;fillColor=#FFFFCC;strokeColor=#b85450;" parent="1" vertex="1">
          <mxGeometry x="-240" y="280" width="200" height="120" as="geometry" />
        </mxCell>
        <mxCell id="eoz6ecvWHp-TzSuoyNFB-2" value="" style="edgeStyle=orthogonalEdgeStyle;html=1;endArrow=ERzeroToMany;startArrow=ERmandOne;labelBackgroundColor=none;fontFamily=Verdana;fontSize=14;entryX=0;entryY=0.25;entryDx=0;entryDy=0;exitX=1;exitY=0.25;exitDx=0;exitDy=0;" edge="1" parent="1" source="r34V6b8p5sTnCpe_UtRE-2" target="r34V6b8p5sTnCpe_UtRE-4">
          <mxGeometry width="100" height="100" relative="1" as="geometry">
            <mxPoint x="-690" y="160" as="sourcePoint" />
            <mxPoint x="-350" y="318" as="targetPoint" />
            <Array as="points">
              <mxPoint x="-520" y="150" />
              <mxPoint x="-520" y="310" />
            </Array>
          </mxGeometry>
        </mxCell>
        <mxCell id="eoz6ecvWHp-TzSuoyNFB-3" value="" style="edgeStyle=orthogonalEdgeStyle;html=1;endArrow=ERzeroToMany;startArrow=ERmandOne;labelBackgroundColor=none;fontFamily=Verdana;fontSize=14;" edge="1" parent="1" source="r34V6b8p5sTnCpe_UtRE-3" target="r34V6b8p5sTnCpe_UtRE-4">
          <mxGeometry width="100" height="100" relative="1" as="geometry">
            <mxPoint x="-630" y="531" as="sourcePoint" />
            <mxPoint x="-260" y="381" as="targetPoint" />
            <Array as="points">
              <mxPoint x="-520" y="531" />
              <mxPoint x="-520" y="381" />
            </Array>
          </mxGeometry>
        </mxCell>
        <mxCell id="eoz6ecvWHp-TzSuoyNFB-4" value="" style="edgeStyle=orthogonalEdgeStyle;html=1;endArrow=ERzeroToMany;startArrow=ERmandOne;labelBackgroundColor=none;fontFamily=Verdana;fontSize=14;exitX=0;exitY=0.5;exitDx=0;exitDy=0;entryX=1;entryY=0.5;entryDx=0;entryDy=0;" edge="1" parent="1" source="r34V6b8p5sTnCpe_UtRE-3" target="r34V6b8p5sTnCpe_UtRE-1">
          <mxGeometry width="100" height="100" relative="1" as="geometry">
            <mxPoint x="-970" y="500" as="sourcePoint" />
            <mxPoint x="-1320" y="500" as="targetPoint" />
            <Array as="points">
              <mxPoint x="-1300" y="500" />
              <mxPoint x="-1300" y="500" />
            </Array>
          </mxGeometry>
        </mxCell>
        <mxCell id="eoz6ecvWHp-TzSuoyNFB-6" value="&lt;font style=&quot;font-size: 18px;&quot;&gt;Aittir&lt;/font&gt;" style="text;html=1;align=center;verticalAlign=middle;resizable=0;points=[];autosize=1;strokeColor=none;fillColor=none;" vertex="1" parent="1">
          <mxGeometry x="-1280" y="463" width="60" height="40" as="geometry" />
        </mxCell>
        <mxCell id="eoz6ecvWHp-TzSuoyNFB-7" value="&lt;font style=&quot;font-size: 18px;&quot;&gt;Sahiptir&lt;/font&gt;" style="text;html=1;align=center;verticalAlign=middle;resizable=0;points=[];autosize=1;strokeColor=none;fillColor=none;" vertex="1" parent="1">
          <mxGeometry x="-1040" y="463" width="80" height="40" as="geometry" />
        </mxCell>
        <mxCell id="eoz6ecvWHp-TzSuoyNFB-8" value="&lt;font style=&quot;font-size: 18px;&quot;&gt;Talep Eder&lt;/font&gt;" style="text;html=1;align=center;verticalAlign=middle;resizable=0;points=[];autosize=1;strokeColor=none;fillColor=none;" vertex="1" parent="1">
          <mxGeometry x="-385" y="385" width="110" height="40" as="geometry" />
        </mxCell>
        <mxCell id="eoz6ecvWHp-TzSuoyNFB-10" value="&lt;font style=&quot;font-size: 18px;&quot;&gt;İletilir&lt;/font&gt;" style="text;html=1;align=center;verticalAlign=middle;resizable=0;points=[];autosize=1;strokeColor=none;fillColor=none;" vertex="1" parent="1">
          <mxGeometry x="-685" y="525" width="70" height="40" as="geometry" />
        </mxCell>
        <mxCell id="eoz6ecvWHp-TzSuoyNFB-11" value="&lt;font style=&quot;font-size: 18px;&quot;&gt;İletilir&lt;/font&gt;" style="text;html=1;align=center;verticalAlign=middle;resizable=0;points=[];autosize=1;strokeColor=none;fillColor=none;" vertex="1" parent="1">
          <mxGeometry x="-685" y="115" width="70" height="40" as="geometry" />
        </mxCell>
        <mxCell id="eoz6ecvWHp-TzSuoyNFB-12" value="&lt;font style=&quot;font-size: 18px;&quot;&gt;Talep Eder&lt;/font&gt;" style="text;html=1;align=center;verticalAlign=middle;resizable=0;points=[];autosize=1;strokeColor=none;fillColor=none;" vertex="1" parent="1">
          <mxGeometry x="-385" y="265" width="110" height="40" as="geometry" />
        </mxCell>
      </root>
    </mxGraphModel>
  </diagram>
</mxfile>
